<svg xmlns="http://www.w3.org/2000/svg" xmlns:xlink="http://www.w3.org/1999/xlink" width="940" zoomAndPan="magnify" viewBox="0 0 705 591.000005" height="788" preserveAspectRatio="xMidYMid meet" version="1.0"><defs><clipPath id="11b3c8790d"><path d="M 0.59375 0 L 704.402344 0 L 704.402344 590 L 0.59375 590 Z M 0.59375 0 " clip-rule="nonzero"/></clipPath><clipPath id="dd245f04c7"><path d="M 75.378906 0 L 645.164062 0 L 645.164062 569.785156 L 75.378906 569.785156 Z M 75.378906 0 " clip-rule="nonzero"/></clipPath></defs><g clip-path="url(#11b3c8790d)"><path fill="#ffffff" d="M 0.59375 0 L 704.40625 0 L 704.40625 597.488281 L 0.59375 597.488281 Z M 0.59375 0 " fill-opacity="1" fill-rule="nonzero"/><path fill="#ffffff" d="M 0.59375 0 L 704.40625 0 L 704.40625 590 L 0.59375 590 Z M 0.59375 0 " fill-opacity="1" fill-rule="nonzero"/><path fill="#ffffff" d="M 0.59375 0 L 704.40625 0 L 704.40625 590 L 0.59375 590 Z M 0.59375 0 " fill-opacity="1" fill-rule="nonzero"/></g><g clip-path="url(#dd245f04c7)"><path fill="#8c52ff" d="M 360.269531 0 C 203.121094 0 75.378906 127.742188 75.378906 284.894531 C 75.378906 442.042969 203.121094 569.785156 360.269531 569.785156 C 517.421875 569.785156 645.164062 442.042969 645.164062 284.894531 C 645.164062 127.742188 517.421875 0 360.269531 0 Z M 520.363281 312.464844 L 387.839844 312.464844 L 387.839844 444.984375 C 387.839844 460.054688 375.527344 472.554688 360.269531 472.554688 C 345.015625 472.554688 332.699219 460.054688 332.699219 444.984375 L 332.699219 312.464844 L 200.179688 312.464844 C 185.105469 312.464844 172.609375 300.148438 172.609375 284.894531 C 172.609375 269.636719 185.105469 257.324219 200.179688 257.324219 L 332.699219 257.324219 L 332.699219 124.800781 C 332.699219 109.730469 345.015625 97.230469 360.269531 97.230469 C 375.527344 97.230469 387.839844 109.730469 387.839844 124.800781 L 387.839844 257.324219 L 520.363281 257.324219 C 535.433594 257.324219 547.933594 269.636719 547.933594 284.894531 C 547.933594 300.148438 535.433594 312.464844 520.363281 312.464844 Z M 520.363281 312.464844 " fill-opacity="1" fill-rule="nonzero"/></g></svg>